# xmcd
# 
# Track frame offsets:
#     150
#     18767
#     37944
#     64107
#     89723
#     106869
#     121762
#     141379
#     168301
#     192204
#     213823
#     241789
#     270471
#     294818
#     320586
# 
# Disc length: 4591
# 
# Revision: 3
# Processed by: cddbd v1.5.2PL0 Copyright (c) Steve Scherf et al.
# Submitted via: fre:ac v1.0.17
# 
DISCID=c511ed0f
DTITLE=宇崎竜童 - ブルースで死にな ［A面］
DYEAR=2008
DGENRE=Blues
TTITLE0=ブルースで死にな
TTITLE1=レイジー・レディー・ブルース
TTITLE2=待ち呆けのブルース
TTITLE3=沖縄ベイ・ブルース
TTITLE4=アンタがいない
TTITLE5=あゝ ブルース
TTITLE6=バッカス・ブルース
TTITLE7=横浜ホンキートンク・ブルース
TTITLE8=うらぶれた部屋で
TTITLE9=BUBBLE UP BOOGIE
TTITLE10=ララバイ・オブ・ユー
TTITLE11=新宿レイニー・ナイト
TTITLE12=腕（かいな）
TTITLE13=柘榴（ざくろ）
TTITLE14=竹田の子守唄
EXTD=
EXTT0=
EXTT1=
EXTT2=
EXTT3=
EXTT4=
EXTT5=
EXTT6=
EXTT7=
EXTT8=
EXTT9=
EXTT10=
EXTT11=
EXTT12=
EXTT13=
EXTT14=
PLAYORDER=
